<?xml version="1.0" encoding="UTF-8"?>
<svg width="1200pt" height="1200pt" version="1.1" viewBox="0 0 1200 1200" xmlns="http://www.w3.org/2000/svg">
 <path d="m600 60c-296.4 0-537.6 241.2-540 536.4-1.1992 144 54 280.8 156 382.8 100.8 103.2 236.4 159.6 380.4 160.8h3.6016c296.4 0 537.6-241.2 540-536.4 2.3984-297.6-238.8-541.2-540-543.6zm271.2 811.2c-7.1992 7.1992-15.602 10.801-25.199 10.801-8.3984 0-16.801-2.3984-24-9.6016l-98.398-96c-42 32.398-94.801 50.398-148.8 50.398-66 0-128.4-26.398-175.2-73.199-97.199-96-97.199-253.2 0-350.4 46.801-48 109.2-73.199 175.2-73.199s128.4 26.398 175.2 73.199c87.602 87.602 96 226.8 22.801 324l98.398 94.801c13.199 13.199 13.199 36 0 49.199z"/>
 <path d="m574.8 400.8c-48 0-92.398 19.199-126 52.801-69.602 69.602-69.602 182.4 0 252 33.602 34.801 78 52.801 126 52.801s92.398-19.199 126-52.801c69.602-69.602 69.602-183.6 0-252-33.602-34.801-78-52.801-126-52.801z"/>
</svg>
